<?xml version="1.0" encoding="utf-8"?>
<!-- Generator: Adobe Illustrator 18.1.1, SVG Export Plug-In . SVG Version: 6.00 Build 0)  -->
<svg version="1.1" id="Layer_1" xmlns="http://www.w3.org/2000/svg" xmlns:xlink="http://www.w3.org/1999/xlink" x="0px" y="0px"
	 viewBox="0 0 405.2 95.7" enable-background="new 0 0 405.2 95.7" xml:space="preserve">
<g>
	<g>
		<g>
			<polygon fill="#6D6E71" points="0,2.7 0,12.7 16.1,12.7 16.1,56.5 28,56.5 28,12.7 44.1,12.7 44.1,2.7 			"/>
			<polygon fill="#6D6E71" points="83.7,2.7 83.7,23.4 62,23.4 62,2.7 50.1,2.7 50.1,56.5 62,56.5 62,33.3 83.7,33.3 83.7,56.5 
				95.6,56.5 95.6,2.7 			"/>
			<polygon fill="#6D6E71" points="101.7,2.7 101.7,56.5 142.5,56.5 142.5,46.6 113.5,46.6 113.5,33.4 139.6,33.4 139.6,24.2 
				113.5,24.2 113.5,12.7 141.9,12.7 141.9,2.7 			"/>
			<polygon fill="#6D6E71" points="166.1,2.7 166.1,12.7 182.2,12.7 182.2,56.5 194.1,56.5 194.1,12.7 210.2,12.7 210.2,2.7 			"/>
			<path fill="#6D6E71" d="M245.2,2.7c2.4,0,4.6,0.4,6.5,1.2c1.9,0.8,3.6,1.8,5,3.2c1.4,1.4,2.4,2.9,3.2,4.7
				c0.7,1.8,1.1,3.7,1.1,5.8c0,3.2-0.7,5.9-2,8.2c-1.3,2.3-3.5,4.1-6.5,5.3v0.2c1.5,0.4,2.7,1,3.6,1.8c1,0.8,1.7,1.8,2.3,2.9
				c0.6,1.1,1,2.4,1.3,3.7c0.3,1.4,0.5,2.7,0.6,4.1c0,0.9,0.1,1.9,0.1,3c0,1.2,0.1,2.3,0.3,3.5c0.1,1.2,0.3,2.4,0.6,3.4
				c0.3,1.1,0.7,2,1.2,2.8h-11.8c-0.7-1.7-1.1-3.7-1.2-6.1c-0.2-2.4-0.4-4.6-0.7-6.8c-0.4-2.8-1.3-4.9-2.6-6.2c-1.3-1.3-3.4-2-6.4-2
				H228v21h-11.8V2.7H245.2z M241,27.1c2.7,0,4.7-0.6,6.1-1.8c1.4-1.2,2-3.2,2-5.9c0-2.6-0.7-4.5-2-5.7c-1.4-1.2-3.4-1.8-6.1-1.8
				h-13v15.1H241z"/>
			<polygon fill="#6D6E71" points="308.8,2.7 308.8,12.7 280.4,12.7 280.4,24.2 306.5,24.2 306.5,33.4 280.4,33.4 280.4,46.6 
				309.4,46.6 309.4,56.5 268.6,56.5 268.6,2.7 			"/>
			<polygon fill="#6D6E71" points="355.1,2.7 355.1,12.7 326.7,12.7 326.7,24.2 352.8,24.2 352.8,33.4 326.7,33.4 326.7,46.6 
				355.7,46.6 355.7,56.5 314.9,56.5 314.9,2.7 			"/>
			<path fill="#6D6E71" d="M372.4,43.3c0.7,1.3,1.5,2.3,2.6,3.1c1.1,0.8,2.3,1.4,3.8,1.7c1.5,0.4,3,0.6,4.5,0.6
				c1.1,0,2.2-0.1,3.4-0.3c1.2-0.2,2.3-0.5,3.4-1c1.1-0.5,1.9-1.2,2.6-2.1c0.7-0.9,1.1-2,1.1-3.4c0-1.5-0.5-2.6-1.4-3.5
				c-0.9-0.9-2.1-1.7-3.7-2.3c-1.5-0.6-3.2-1.1-5.1-1.6c-1.9-0.5-3.8-1-5.8-1.5c-2-0.5-4-1.1-5.9-1.8c-1.9-0.7-3.6-1.7-5.1-2.8
				c-1.5-1.2-2.7-2.6-3.7-4.3c-0.9-1.7-1.4-3.8-1.4-6.3c0-2.8,0.6-5.2,1.8-7.2c1.2-2,2.7-3.7,4.6-5.1c1.9-1.4,4.1-2.4,6.5-3
				c2.4-0.7,4.8-1,7.2-1c2.8,0,5.5,0.3,8.1,0.9c2.6,0.6,4.9,1.6,6.9,3.1c2,1.4,3.6,3.2,4.8,5.4c1.2,2.2,1.8,4.8,1.8,7.9H392
				c-0.1-1.6-0.4-2.9-1-4c-0.6-1.1-1.3-1.9-2.3-2.5c-1-0.6-2-1-3.3-1.3c-1.2-0.3-2.6-0.4-4-0.4c-1,0-1.9,0.1-2.9,0.3
				c-1,0.2-1.8,0.6-2.6,1.1c-0.8,0.5-1.4,1.1-1.9,1.9c-0.5,0.7-0.8,1.7-0.8,2.9c0,1.1,0.2,1.9,0.6,2.6c0.4,0.7,1.2,1.3,2.4,1.8
				c1.2,0.6,2.8,1.1,4.9,1.7c2.1,0.6,4.8,1.3,8.2,2.1c1,0.2,2.4,0.6,4.2,1.1c1.8,0.5,3.6,1.4,5.3,2.5c1.8,1.2,3.3,2.7,4.6,4.6
				c1.3,1.9,1.9,4.4,1.9,7.4c0,2.5-0.5,4.7-1.4,6.9c-1,2.1-2.4,3.9-4.3,5.5c-1.9,1.5-4.2,2.7-7,3.6c-2.8,0.9-6,1.3-9.7,1.3
				c-3,0-5.8-0.4-8.6-1.1c-2.8-0.7-5.2-1.9-7.4-3.4c-2.1-1.6-3.8-3.5-5.1-6c-1.3-2.4-1.9-5.3-1.8-8.6h11.5
				C371.4,40.5,371.8,42,372.4,43.3"/>
		</g>
	</g>
	<g>
		<path fill="#6D6E71" d="M183.9,74.5l5.8,15.8h0l5.7-15.8h1.8l-6.6,17.7h-2l-6.5-17.7H183.9z"/>
		<path fill="#6D6E71" d="M201.1,74.5v17.7h-1.7V74.5H201.1z"/>
		<path fill="#6D6E71" d="M207,74.5V84l10.3-9.5h2.3l-7.9,7.3l8.3,10.4h-2.2l-7.4-9.2l-3.4,3.1v6.1h-1.7V74.5H207z"/>
		<path fill="#6D6E71" d="M223.6,74.5v7.7h10.5v-7.7h1.7v17.7h-1.7v-8.6h-10.5v8.6h-1.7V74.5H223.6z"/>
		<path fill="#6D6E71" d="M248,74.5c0.7,0,1.4,0.1,2.1,0.3c0.7,0.2,1.2,0.5,1.7,0.8c0.5,0.4,0.9,0.9,1.2,1.4s0.4,1.3,0.4,2.1
			c0,1.1-0.3,2.1-0.9,2.9c-0.6,0.8-1.4,1.4-2.6,1.6v0c0.6,0.1,1.1,0.2,1.4,0.5c0.4,0.2,0.7,0.5,0.9,0.9c0.2,0.3,0.4,0.7,0.5,1.2
			s0.2,0.9,0.2,1.5c0,0.3,0,0.7,0,1.1c0,0.4,0,0.9,0.1,1.3c0,0.4,0.1,0.9,0.2,1.2c0.1,0.4,0.3,0.7,0.4,0.9H252
			c-0.1-0.2-0.2-0.4-0.2-0.6c-0.1-0.2-0.1-0.5-0.1-0.7s0-0.5-0.1-0.8c0-0.2,0-0.5,0-0.6c0-0.6-0.1-1.3-0.2-1.9
			c-0.1-0.6-0.2-1.2-0.5-1.7c-0.2-0.5-0.6-0.9-1-1.2c-0.5-0.3-1.1-0.4-1.9-0.4h-6.4v7.9h-1.7V74.5H248z M247.9,82.9
			c0.5,0,1-0.1,1.5-0.2s0.9-0.4,1.2-0.7c0.3-0.3,0.6-0.7,0.8-1.1c0.2-0.4,0.3-0.9,0.3-1.4c0-1.1-0.3-2-0.9-2.6s-1.6-0.9-2.9-0.9
			h-6.3v7H247.9z"/>
		<path fill="#6D6E71" d="M256.6,79.8c0.3-1.1,0.9-2.1,1.6-2.9c0.7-0.9,1.6-1.5,2.6-2c1-0.5,2.3-0.8,3.7-0.8c1.4,0,2.6,0.3,3.6,0.8
			c1,0.5,1.9,1.2,2.6,2c0.7,0.9,1.2,1.8,1.6,2.9s0.5,2.3,0.5,3.5s-0.2,2.4-0.5,3.5c-0.3,1.1-0.9,2.1-1.6,2.9s-1.6,1.5-2.6,2
			s-2.3,0.8-3.6,0.8c-1.4,0-2.6-0.3-3.7-0.8c-1-0.5-1.9-1.2-2.6-2s-1.2-1.8-1.6-2.9c-0.3-1.1-0.5-2.3-0.5-3.5S256.2,81,256.6,79.8z
			 M258.1,86.2c0.3,0.9,0.7,1.8,1.2,2.5c0.5,0.7,1.2,1.3,2.1,1.8s1.9,0.7,3,0.7c1.2,0,2.2-0.2,3-0.7c0.8-0.4,1.5-1,2.1-1.8
			c0.5-0.7,0.9-1.6,1.2-2.5c0.3-0.9,0.4-1.9,0.4-2.8c0-1-0.1-1.9-0.4-2.9c-0.3-0.9-0.7-1.8-1.2-2.5s-1.2-1.3-2.1-1.8
			c-0.8-0.4-1.8-0.7-3-0.7c-1.2,0-2.2,0.2-3,0.7s-1.5,1-2.1,1.8c-0.5,0.7-0.9,1.6-1.2,2.5c-0.3,0.9-0.4,1.9-0.4,2.9
			C257.7,84.3,257.9,85.2,258.1,86.2z"/>
		<path fill="#6D6E71" d="M277.6,74.5v16.3h9.9v1.4h-11.6V74.5H277.6z"/>
		<path fill="#6D6E71" d="M291.6,74.5v17.7h-1.7V74.5H291.6z"/>
		<path fill="#6D6E71" d="M298.5,92.2c0,0.4,0,0.7-0.1,1.1c-0.1,0.4-0.2,0.7-0.4,1c-0.2,0.3-0.4,0.6-0.7,0.8s-0.6,0.4-1,0.5v-1.1
			c0.2-0.1,0.4-0.2,0.5-0.4c0.1-0.2,0.3-0.4,0.4-0.6c0.1-0.2,0.2-0.5,0.2-0.7s0.1-0.5,0-0.6h-1v-2.6h2.1V92.2z"/>
		<path fill="#6D6E71" d="M313.1,74.5L319,90l6.1-15.5h2.5v17.7h-1.7V76.9h0l-6,15.3h-1.6l-5.8-15.3h0v15.3h-1.7V74.5H313.1z"/>
		<path fill="#6D6E71" d="M333.1,74.5v11c0,1,0.1,1.9,0.3,2.6s0.6,1.3,1,1.8c0.4,0.5,1,0.8,1.6,1c0.6,0.2,1.4,0.3,2.2,0.3
			c0.8,0,1.6-0.1,2.2-0.3c0.6-0.2,1.2-0.5,1.6-1c0.4-0.5,0.8-1,1-1.8c0.2-0.7,0.3-1.6,0.3-2.6v-11h1.7v11.3c0,0.9-0.1,1.8-0.4,2.6
			c-0.3,0.8-0.7,1.5-1.2,2.1c-0.6,0.6-1.3,1.1-2.1,1.5c-0.9,0.4-1.9,0.5-3.2,0.5c-1.2,0-2.3-0.2-3.1-0.5c-0.9-0.4-1.6-0.8-2.1-1.5
			s-1-1.3-1.2-2.1c-0.3-0.8-0.4-1.7-0.4-2.6V74.5H333.1z"/>
		<path fill="#6D6E71" d="M351.5,74.5l5.9,15.5l6.1-15.5h2.5v17.7h-1.7V76.9h0l-6,15.3h-1.6l-5.8-15.3h0v15.3H349V74.5H351.5z"/>
		<path fill="#6D6E71" d="M377.5,74.5c0.7,0,1.5,0.1,2.1,0.2c0.7,0.1,1.3,0.4,1.8,0.7s0.9,0.8,1.3,1.3c0.3,0.6,0.5,1.2,0.5,2.1
			c0,0.5-0.1,0.9-0.2,1.4c-0.1,0.4-0.4,0.8-0.6,1.2c-0.3,0.4-0.6,0.7-1,0.9s-0.8,0.4-1.3,0.5v0c1.1,0.1,2,0.6,2.7,1.4
			c0.7,0.8,1,1.8,1,2.9c0,0.3,0,0.6-0.1,1c0,0.4-0.1,0.7-0.3,1.1c-0.1,0.4-0.4,0.7-0.6,1.1s-0.7,0.7-1.1,1s-1,0.5-1.7,0.7
			c-0.7,0.2-1.5,0.3-2.5,0.3H370V74.5H377.5z M377.5,82.3c0.7,0,1.3-0.1,1.8-0.2s0.9-0.4,1.2-0.6c0.3-0.3,0.6-0.6,0.7-1
			c0.2-0.4,0.2-0.8,0.2-1.2c0-2.2-1.3-3.3-4-3.3h-5.8v6.3H377.5z M377.5,90.8c0.6,0,1.2-0.1,1.8-0.2s1.1-0.3,1.5-0.6
			c0.4-0.3,0.8-0.7,1-1.1c0.2-0.5,0.4-1.1,0.4-1.8c0-1.1-0.4-2-1.2-2.6c-0.8-0.6-2-0.9-3.5-0.9h-5.8v7.1H377.5z"/>
		<path fill="#6D6E71" d="M394.1,74.5l6.9,17.7h-1.8l-2.2-5.5H389l-2.1,5.5h-1.8l7.1-17.7H394.1z M396.5,85.3l-3.4-9.1l-3.5,9.1
			H396.5z"/>
		<path fill="#6D6E71" d="M405,74.5v17.7h-1.7V74.5H405z"/>
	</g>
</g>
</svg>
